<?xml version="1.0" encoding="utf-8"?>
<!-- Generator: Adobe Illustrator 21.0.0, SVG Export Plug-In . SVG Version: 6.00 Build 0)  -->
<svg version="1.1" id="Слой_1" xmlns="http://www.w3.org/2000/svg" xmlns:xlink="http://www.w3.org/1999/xlink" x="0px" y="0px"
	 viewBox="0 0 409.6 409.6" style="enable-background:new 0 0 409.6 409.6;" xml:space="preserve">
<style type="text/css">
	.st0{fill:#9ABE2C;}
	.st1{opacity:0.5;fill:#9ABE2C;}
</style>
<path class="st0" d="M277.9,409.6H65.6c-6.7,0-12.1-5.4-12.1-12.1s5.4-12.1,12.1-12.1h212.3c6.7,0,12.1,5.4,12.1,12.1
	S284.6,409.6,277.9,409.6L277.9,409.6z M277.9,409.6"/>
<path class="st0" d="M374.4,409.6h-25.3c-6.7,0-12.1-5.4-12.1-12.1s5.4-12.1,12.1-12.1h25.3c6.1,0,11.1-5,11.1-11.1v-7.3
	c0-6.1-5-11.1-11.1-11.1H65.6c-6.7,0-12.1-5.4-12.1-12.1c0-6.7,5.4-12.1,12.1-12.1h308.7c19.4,0,35.2,15.8,35.2,35.2v7.3
	C409.6,393.8,393.8,409.6,374.4,409.6L374.4,409.6z M374.4,409.6"/>
<path class="st0" d="M65.6,407c-6.7,0-12.1-5.4-12.1-12.1V35.2c0-6.1-5-11.1-11.1-11.1h-7.3c-6.1,0-11.1,5-11.1,11.1v298.2
	c0,6.7-5.4,12.1-12.1,12.1S0,340,0,333.4V35.2C0,15.8,15.8,0,35.2,0h7.3c19.4,0,35.2,15.8,35.2,35.2v359.7
	C77.7,401.6,72.3,407,65.6,407L65.6,407z M65.6,407"/>
<path class="st1" d="M189.1,121.2l28.3,28.3L65.8,301l-0.2,43H116l148-148l28.3,28.3c1.9,1.9,5.1,0.8,5.4-1.8l16-119.2
	c0.3-2.1-1.5-3.9-3.6-3.6l-119.2,16C188.3,116.1,187.3,119.3,189.1,121.2L189.1,121.2z M189.1,121.2"/>
<path class="st0" d="M116,356.2H65.6c-3.2,0-6.3-1.3-8.6-3.6c-2.3-2.3-3.5-5.4-3.5-8.6l0.2-43c0-3.2,1.3-6.2,3.5-8.5l143.1-143.1
	l-19.7-19.7c-4.1-4.1-5.5-10.1-3.7-15.7c1.9-5.5,6.6-9.5,12.4-10.2l119.2-16c5.1-0.7,10.2,1.3,13.5,5.1c2.9,3.3,4.2,7.7,3.6,12.1
	l-16,119.2c-1,7.6-7.5,13.2-15.2,13.2c-4.1,0-7.9-1.6-10.8-4.5L264,213.1L124.6,352.6C122.3,354.9,119.2,356.2,116,356.2L116,356.2z
	 M77.8,332H111l144.5-144.5c2.3-2.3,5.3-3.5,8.5-3.5c3.2,0,6.3,1.3,8.5,3.5l15.6,15.6l12.1-89.9l-89.9,12.1l15.6,15.6
	c4.7,4.7,4.7,12.4,0,17.1L77.8,306.1L77.8,332z M77.8,332"/>
<path class="st0" d="M163.5,87.7H68.1c-6.7,0-12.1-5.4-12.1-12.1s5.4-12.1,12.1-12.1h95.4c6.7,0,12.1,5.4,12.1,12.1
	S170.1,87.7,163.5,87.7L163.5,87.7z M163.5,87.7"/>
<path class="st0" d="M335.2,353.7c-6.7,0-12.1-5.4-12.1-12.1v-88.1c0-6.7,5.4-12.1,12.1-12.1c6.7,0,12.1,5.4,12.1,12.1v88.1
	C347.3,348.3,341.9,353.7,335.2,353.7L335.2,353.7z M335.2,353.7"/>
</svg>
