<?xml version="1.0" encoding="utf-8"?>
<!-- Generator: Adobe Illustrator 21.0.0, SVG Export Plug-In . SVG Version: 6.00 Build 0)  -->
<svg version="1.1" id="Слой_1" xmlns="http://www.w3.org/2000/svg" xmlns:xlink="http://www.w3.org/1999/xlink" x="0px" y="0px"
	 viewBox="0 0 371.1 409.6" style="enable-background:new 0 0 371.1 409.6;" xml:space="preserve">
<style type="text/css">
	.st0{opacity:0.5;fill:#CCB0A0;}
	.st1{fill:#B9B2AE;}
	.st2{opacity:0.5;fill:#B9B2AE;}
</style>
<g>
	<path class="st0" d="M248.1,302.8L185.5,354L123,302.8l41.2-183.6h42.8L248.1,302.8z M248.1,302.8"/>
	<path class="st1" d="M185.5,366.4c-2.8,0-5.5-0.9-7.8-2.8l-62.6-51.2c-3.6-3-5.3-7.7-4.2-12.3l41.2-183.6c1.3-5.6,6.3-9.6,12.1-9.6
		h42.8c5.8,0,10.8,4,12.1,9.6l41.2,183.6c1,4.6-0.6,9.3-4.2,12.3l-62.6,51.2C191.1,365.4,188.3,366.4,185.5,366.4L185.5,366.4z
		 M136.7,298.1l48.9,40l48.9-40l-37.3-166.5h-23L136.7,298.1z M136.7,298.1"/>
	<path class="st1" d="M113,153c-8.7,0-16.6-4.7-20.9-12.2L58.3,80.1c-1-1.8-1.6-3.9-1.6-6V30.6C56.8,13.7,70.5,0,87.4,0
		c5.4,0,10.8,1.5,15.6,4.3l80.3,47.5c3,1.8,5.1,4.8,5.8,8.2c0.7,3.4-0.1,7-2.2,9.8l-54.8,73.5C127.5,149.5,120.5,153,113,153
		L113,153z M81.5,70.9l31.6,56.7l45.8-61.5L90.4,25.6c-1-0.6-2-0.9-3-0.9c-2.9,0-5.9,2.3-5.9,5.9V70.9z M81.5,70.9"/>
	<path class="st1" d="M258.1,153c-7.6,0-14.6-3.5-19.1-9.6l-54.8-73.5c-2.1-2.8-2.9-6.4-2.2-9.8c0.7-3.4,2.8-6.4,5.8-8.2l80.3-47.5
		c4.7-2.8,10.1-4.3,15.5-4.3c16.9,0,30.6,13.7,30.6,30.6v43.4c0,2.1-0.5,4.2-1.6,6L279,140.7C274.8,148.3,266.8,153,258.1,153
		L258.1,153z M212.2,66.1l45.8,61.5l31.6-56.7V30.6c0-3.7-3.1-5.9-5.9-5.9c-1,0-2,0.3-3,0.9L212.2,66.1z M212.2,66.1"/>
	<path class="st2" d="M194.1,62.5H177l-36.9,49.5l8.5,26h73.9l8.5-26L194.1,62.5z M194.1,62.5"/>
	<path class="st1" d="M222.5,150.2h-73.9c-5.3,0-10.1-3.4-11.7-8.5l-8.5-25.9c-1.3-3.8-0.6-8,1.8-11.2l36.9-49.5c2.3-3.1,6-5,9.9-5
		h17.1c3.9,0,7.6,1.8,9.9,5l36.9,49.5c2.4,3.2,3.1,7.4,1.8,11.2l-8.5,25.9C232.5,146.8,227.8,150.2,222.5,150.2L222.5,150.2z
		 M157.5,125.5h56l3.7-11.4l-29.4-39.4h-4.7l-29.4,39.4L157.5,125.5z M157.5,125.5"/>
	<path class="st1" d="M307.4,409.6h-59.3c-6.8,0-12.3-5.5-12.3-12.4c0-6.8,5.5-12.3,12.3-12.3h59.3c21.5,0,38.9-17.5,38.9-38.9
		V146.4c0-6.6-2.6-12.8-7.2-17.5c-4.8-4.8-4.8-12.6,0-17.5c4.8-4.8,12.6-4.8,17.5,0c9.3,9.3,14.5,21.7,14.5,34.9V346
		C371.1,381.1,342.5,409.6,307.4,409.6L307.4,409.6z M307.4,409.6"/>
	<path class="st1" d="M173.2,409.6H63.6C28.6,409.6,0,381.1,0,346V146.4c0-13.2,5.1-25.6,14.5-34.9l44.3-44.3
		c4.8-4.8,12.6-4.8,17.5,0c4.8,4.8,4.8,12.6,0,17.5L31.9,129c-4.7,4.7-7.2,10.9-7.2,17.5V346c0,21.5,17.5,38.9,38.9,38.9h109.5
		c6.8,0,12.3,5.5,12.3,12.4C185.5,404.1,180,409.6,173.2,409.6L173.2,409.6z M173.2,409.6"/>
</g>
</svg>
