<?xml version="1.0" encoding="utf-8"?>
<!-- Generator: Adobe Illustrator 21.0.0, SVG Export Plug-In . SVG Version: 6.00 Build 0)  -->
<svg version="1.1" id="Layer_1" xmlns="http://www.w3.org/2000/svg" xmlns:xlink="http://www.w3.org/1999/xlink" x="0px" y="0px"
	 viewBox="-49 227.9 512 338.3" style="enable-background:new -49 227.9 512 338.3;" xml:space="preserve">
<style type="text/css">
	.st0{opacity:0.37;fill:#CCB0A0;}
	.st1{fill:#B9B2AE;}
</style>
<circle class="st0" cx="57.1" cy="505.5" r="48.2"/>
<path class="st1" d="M448.8,482.7h-59.7c-8.7-24.1-31.7-41.3-58.7-41.3c-27,0-50,17.3-58.7,41.3H163.6v-83.8
	c0-7.8-6.3-14.2-14.2-14.2s-14.2,6.3-14.2,14.2v83.8h-19.4c-8.7-24.1-31.7-41.3-58.7-41.3c-27,0-50,17.3-58.7,41.3h-9.5
	c-5.3,0-9.6-4.3-9.6-9.6v-61.7c0-2.5,1-4.9,2.7-6.7l34.3-19.7c0.4-0.2,0.8-0.5,1.2-0.8h52.1c7.8,0,14.2-6.3,14.2-14.2
	c0-7.8-6.3-14.2-14.2-14.2H30.8l25.8-67.9c8.8-19.3,28.1-31.8,49.2-31.9l29.4,0.1v52c0,7.8,6.3,14.2,14.2,14.2s14.2-6.3,14.2-14.2
	v-66.1c0-7.8-6.3-14.1-14.1-14.2l-43.6-0.1c-32.5,0.1-62,19.3-75.3,49c-0.1,0.2-0.2,0.5-0.3,0.7L-2.1,363l-31.3,18
	c-0.7,0.4-1.4,0.9-2.1,1.4c-8.6,7.2-13.5,17.8-13.5,29v61.7c0,20.9,17,37.9,37.9,37.9h6.3c3.6,31,30,55.1,61.9,55.1
	c31.9,0,58.3-24.1,61.9-55.1h149.5c3.6,31,30,55.1,61.9,55.1c7.8,0,14.2-6.3,14.2-14.2c0-7.8-6.3-14.2-14.2-14.2
	c-18.8,0-34-15.3-34-34c0-18.8,15.3-34,34-34s34,15.3,34,34c0,7.8,6.3,14.2,14.2,14.2c5.2,0,9.7-2.8,12.1-6.9h58.1
	c7.8,0,14.2-6.3,14.2-14.2C463,489.1,456.7,482.7,448.8,482.7z M57.1,537.8c-18.8,0-34-15.3-34-34c0-18.8,15.3-34,34-34
	s34,15.3,34,34S75.9,537.8,57.1,537.8z"/>
<polygon class="st0" points="371.5,244.1 371.5,332.7 333.3,311.9 295,332.7 295,244.1 217.7,244.1 217.7,400.6 448.8,400.6 
	448.8,244.1 "/>
<path class="st1" d="M448.8,413H217.7c-7.8,0-14.2-6.3-14.2-14.2V242.4c0-7.8,6.3-14.2,14.2-14.2H295c7.8,0,14.2,6.3,14.2,14.2v64.8
	l17.3-9.4c4.2-2.3,9.3-2.3,13.5,0l17.3,9.4v-64.8c0-7.8,6.3-14.2,14.2-14.2h77.3c7.8,0,14.2,6.3,14.2,14.2v156.5
	C463,406.7,456.7,413,448.8,413z M231.9,384.7h202.8V256.5h-49v74.4c0,5-2.6,9.6-6.9,12.2c-4.3,2.6-9.6,2.7-14,0.3l-31.5-17.1
	l-31.5,17.1c-4.4,2.4-9.7,2.3-14-0.3c-4.3-2.6-6.9-7.2-6.9-12.2v-74.4h-49L231.9,384.7L231.9,384.7z"/>
</svg>
