<?xml version="1.0" encoding="utf-8"?>
<!-- Generator: Adobe Illustrator 21.0.0, SVG Export Plug-In . SVG Version: 6.00 Build 0)  -->
<svg version="1.1" id="Слой_1" xmlns="http://www.w3.org/2000/svg" xmlns:xlink="http://www.w3.org/1999/xlink" x="0px" y="0px"
	 viewBox="0 0 393.6 325.2" style="enable-background:new 0 0 393.6 325.2;" xml:space="preserve">
<g>
	<path d="M265.3,239.7c-2.3,0-4.4,0.9-6,2.5L205.4,296V162.7c0-4.7-3.8-8.6-8.5-8.6c-4.7,0-8.6,3.8-8.6,8.6V296l-53.8-53.8
		c-1.6-1.6-3.8-2.5-6-2.5c-2.3,0-4.4,0.9-6,2.5c-3.3,3.3-3.3,8.8,0,12.1l68.4,68.4c1.4,1.4,3.2,2.2,5.1,2.4c0,0,0.1,0,0.1,0
		c0.3,0,0.6,0,0.9,0c0.3,0,0.6,0,0.9,0c0.1,0,0.1,0,0.2,0c0.2,0,0.5-0.1,0.7-0.1c0,0,0.1,0,0.1,0c1.3-0.3,2.6-0.9,3.6-1.8
		c0,0,0.1-0.1,0.1-0.1c0.2-0.1,0.3-0.3,0.5-0.4l68.4-68.4c3.3-3.3,3.3-8.8,0-12.1C269.7,240.6,267.6,239.7,265.3,239.7z"/>
	<path d="M376.5,142.8c-17.6-25-46.4-40-76.9-40h-15l-1.9-5.4C262.4,39.2,207.2,0,145.4,0c-12.1,0-24.3,1.5-36.1,4.6
		C71.7,14.2,40.2,38,20.4,71.4C0.6,104.9-5,144,4.6,181.5c5.7,22.2,16.7,43,31.9,60.2c1.6,1.8,4,2.9,6.4,2.9c2.1,0,4.1-0.8,5.7-2.1
		c1.7-1.5,2.7-3.6,2.9-5.9c0.1-2.3-0.6-4.5-2.1-6.2c-13.4-15.2-23.2-33.5-28.2-53.1c-8.5-33.1-3.6-67.7,13.9-97.2
		c17.5-29.5,45.3-50.5,78.5-59c10.4-2.7,21.2-4,31.9-4c58.6,0,109.7,39.6,124.3,96.4c1,3.8,4.4,6.4,8.3,6.4h21.6
		c25,0,48.6,12.2,63,32.7c11.8,16.8,16.4,37.2,12.8,57.5c-3.5,20.3-14.7,37.9-31.5,49.8c-1.9,1.3-3.1,3.3-3.5,5.5s0.1,4.5,1.4,6.4
		c1.6,2.3,4.2,3.6,7,3.6c1.8,0,3.5-0.5,4.9-1.6c20.5-14.4,34.2-36,38.5-60.8C396.5,188.3,391,163.3,376.5,142.8z"/>
</g>
</svg>
