<?xml version="1.0" encoding="utf-8"?>
<!-- Generator: Adobe Illustrator 21.0.0, SVG Export Plug-In . SVG Version: 6.00 Build 0)  -->
<svg version="1.1" id="Слой_1" xmlns="http://www.w3.org/2000/svg" xmlns:xlink="http://www.w3.org/1999/xlink" x="0px" y="0px"
	 viewBox="0 0 334.3 409.6" style="enable-background:new 0 0 334.3 409.6;" xml:space="preserve">
<style type="text/css">
	.st0{opacity:0.5;fill:#9FCF67;}
	.st1{fill:#9FCF67;}
</style>
<path class="st0" d="M301.2,252.3c-8,4.2-26.1,11-58.8,11c-25.1,0-46.5-8.6-69.2-17.6c-24.6-9.8-50-20-81.4-20
	c-26,0-45.2,3.8-58.8,8.4V44c8-4.2,26.1-11,58.8-11c25.1,0,46.5,8.6,69.2,17.6c24.6,9.8,50,20,81.4,20c26,0,45.1-3.8,58.8-8.4V252.3
	z"/>
<path class="st1" d="M324.1,20.1c-6.2-2.6-13.3-1.1-18,3.6c-0.1,0.1-16.9,14-63.6,14c-25.1,0-46.5-8.6-69.2-17.6
	c-24.6-9.8-50-20-81.4-20C30.3,0,7.3,21.3,4.8,23.7C1.7,26.8,0,31,0,35.4v225.9c0,0,0,0,0,0c0,0,0,0,0,0v131.8
	c0,9.1,7.4,16.5,16.5,16.5c9.1,0,16.5-7.4,16.5-16.5V270c8-4.2,26-11,58.8-11c25.1,0,46.5,8.6,69.2,17.6c24.6,9.8,50,20,81.4,20
	c61.6,0,84.6-21.3,87-23.7c3.1-3.1,4.8-7.3,4.8-11.7V35.4C334.3,28.7,330.3,22.6,324.1,20.1z M301.2,252.5c-8,4.2-26.1,11-58.8,11
	c-25.1,0-46.5-8.6-69.2-17.6c-24.6-9.8-50-20-81.4-20c-26,0-45.2,3.8-58.8,8.4V44.1c8-4.2,26.1-11,58.8-11
	c25.1,0,46.5,8.6,69.2,17.6c24.6,9.8,50,20,81.4,20c26,0,45.1-3.8,58.8-8.4V252.5z"/>
</svg>
