<?xml version="1.0" encoding="utf-8"?>
<!-- Generator: Adobe Illustrator 21.0.0, SVG Export Plug-In . SVG Version: 6.00 Build 0)  -->
<svg version="1.1" id="Layer_1" xmlns="http://www.w3.org/2000/svg" xmlns:xlink="http://www.w3.org/1999/xlink" x="0px" y="0px"
	 viewBox="38 141 338 512" style="enable-background:new 38 141 338 512;" xml:space="preserve">
<style type="text/css">
	.st0{opacity:0.5;fill:#CCB0A0;}
	.st1{fill:#B9B2AE;}
</style>
<path class="st0" d="M207,155.3c-85.4,0-154.7,69.3-154.7,154.7S121.6,464.7,207,464.7S361.7,395.4,361.7,310S292.4,155.3,207,155.3
	z M249.1,374.8L207,352.6l-42.1,22.1l8-46.9l-34.1-33.2l47.1-6.8l21-42.6l21,42.6l47.1,6.8l-34.1,33.2L249.1,374.8z"/>
<g>
	<path class="st1" d="M338.3,456.4c-7.9,0-14.3,6.4-14.3,14.3v93.9l-43.3-29.2c-4.8-3.3-11.2-3.3-16,0l-43.3,29.2v-53.3
		c0-7.9-6.4-14.3-14.3-14.3s-14.3,6.4-14.3,14.3v100.5l-43.3-29.2c-4.8-3.3-11.2-3.3-16,0l-43.3,29.2V431.9
		C120.4,461.1,161.7,479,207,479c93.2,0,169-75.8,169-169s-75.8-169-169-169S38,216.8,38,310c0,31.3,8.6,60.6,23.4,85.7v242.9
		c0,5.3,2.9,10.2,7.6,12.6c4.7,2.5,10.3,2.2,14.7-0.8l57.6-38.8l57.6,38.8c2.4,1.6,5.2,2.4,8,2.4c2.3,0,4.6-0.6,6.7-1.7
		c4.7-2.5,7.6-7.3,7.6-12.6v-39.5l51.3-34.5l57.6,38.8c2.4,1.6,5.2,2.4,8,2.4c2.3,0,4.6-0.6,6.7-1.7c4.7-2.5,7.6-7.3,7.6-12.6V470.7
		C352.6,462.8,346.2,456.4,338.3,456.4z M207,169.6c77.4,0,140.4,63,140.4,140.4s-63,140.4-140.4,140.4S66.6,387.4,66.6,310
		S129.6,169.6,207,169.6z"/>
	<path class="st1" d="M157.6,332.9l-6.8,39.4c-0.9,5.4,1.3,10.8,5.7,14c4.4,3.2,10.3,3.6,15.1,1.1l35.4-18.6l35.4,18.6
		c2.1,1.1,4.4,1.6,6.7,1.6c3,0,5.9-0.9,8.4-2.7c4.4-3.2,6.6-8.6,5.7-14l-6.8-39.4l28.7-27.9c3.9-3.8,5.3-9.5,3.6-14.7
		c-1.7-5.2-6.2-9-11.6-9.7l-39.6-5.8l-17.7-35.9c-2.4-4.9-7.4-8-12.8-8c-5.5,0-10.4,3.1-12.8,8l-17.7,35.9l-39.6,5.8
		c-5.4,0.8-9.9,4.6-11.6,9.7c-1.7,5.2-0.3,10.9,3.6,14.7L157.6,332.9z M188,302c4.7-0.7,8.7-3.6,10.8-7.8l8.2-16.6l8.2,16.6
		c2.1,4.2,6.1,7.2,10.8,7.8l18.3,2.7l-13.3,12.9c-3.4,3.3-4.9,8-4.1,12.7l3.1,18.3l-16.4-8.6c-2.1-1.1-4.4-1.6-6.7-1.6
		s-4.6,0.5-6.7,1.6l-16.4,8.6l3.1-18.3c0.8-4.6-0.7-9.4-4.1-12.7l-13.3-12.9L188,302z"/>
</g>
</svg>
