<?xml version="1.0" encoding="utf-8"?>
<!-- Generator: Adobe Illustrator 21.0.0, SVG Export Plug-In . SVG Version: 6.00 Build 0)  -->
<svg version="1.1" id="Слой_1" xmlns="http://www.w3.org/2000/svg" xmlns:xlink="http://www.w3.org/1999/xlink" x="0px" y="0px"
	 viewBox="0 0 327.7 327.7" style="enable-background:new 0 0 327.7 327.7;" xml:space="preserve">
<g>
	<path d="M279.7,48C248.7,17,207.6,0,163.8,0S78.9,17,48,48C17,78.9,0,120.1,0,163.8c0,43.8,17,84.9,48,115.9
		c30.9,30.9,72.1,48,115.8,48c43.8,0,84.9-17,115.9-48c30.9-30.9,48-72.1,48-115.9C327.7,120.1,310.6,78.9,279.7,48L279.7,48z
		 M272.5,272.5c-29,29-67.6,45-108.6,45c-41,0-79.6-16-108.6-45c-29-29-45-67.6-45-108.6c0-41,16-79.6,45-108.6
		c29-29,67.6-45,108.6-45c41,0,79.6,16,108.6,45c29,29,45,67.6,45,108.6C317.4,204.9,301.5,243.4,272.5,272.5L272.5,272.5z
		 M272.5,272.5"/>
	<path d="M275.2,73.6c-1.8-2.2-5-2.5-7.2-0.8c-2.2,1.8-2.5,5-0.8,7.2c19.1,23.6,29.7,53.4,29.7,83.8c0,35.6-13.8,69-39,94.1
		c-25.1,25.1-58.6,39-94.1,39c-32.8,0-64.3-12-88.7-33.9c-2.1-1.9-5.3-1.7-7.2,0.4c-1.9,2.1-1.7,5.3,0.4,7.2
		c26.3,23.5,60.2,36.5,95.6,36.5c38.3,0,74.3-14.9,101.4-42c27.1-27.1,42-63.1,42-101.4C307.2,131.1,295.8,99,275.2,73.6L275.2,73.6
		z M275.2,73.6"/>
	<path d="M30.7,163.8c0-73.4,59.7-133.1,133.1-133.1c32.8,0,64.3,12,88.7,33.9c2.1,1.9,5.3,1.7,7.2-0.4c1.9-2.1,1.7-5.3-0.4-7.2
		c-26.3-23.5-60.2-36.5-95.6-36.5c-38.3,0-74.3,14.9-101.4,42s-42,63.1-42,101.4c0,32.8,11.4,64.9,32,90.3c1,1.3,2.5,1.9,4,1.9
		c1.1,0,2.3-0.4,3.2-1.1c2.2-1.8,2.5-5,0.7-7.2C41.3,224.1,30.7,194.3,30.7,163.8L30.7,163.8z M30.7,163.8"/>
	<path d="M206.9,81.7h-85.7c-21.7,0-39.4,17.7-39.4,39.4v85.7c0,21.7,17.7,39.4,39.4,39.4h85.7c21.7,0,39.4-17.7,39.4-39.4v-85.7
		C246.3,99.4,228.6,81.7,206.9,81.7L206.9,81.7z M235.9,206.9c0,16-13,29-29,29h-85.7c-16,0-29-13-29-29v-85.7c0-16,13-29,29-29
		h85.7c16,0,29,13,29,29V206.9z M235.9,206.9"/>
	<path d="M210,111.8c-3.5,0-6.3,2.8-6.3,6.3c0,3.5,2.8,6.3,6.3,6.3c3.5,0,6.3-2.8,6.3-6.3C216.3,114.6,213.5,111.8,210,111.8
		L210,111.8z M210,111.8"/>
	<path d="M164,123.7c-22.2,0-40.3,18.1-40.3,40.3c0,22.2,18.1,40.3,40.3,40.3s40.3-18.1,40.3-40.3
		C204.3,141.8,186.2,123.7,164,123.7L164,123.7z M164,194c-16.5,0-30-13.4-30-30c0-16.5,13.4-30,30-30c16.5,0,30,13.4,30,30
		C194,180.5,180.5,194,164,194L164,194z M164,194"/>
</g>
</svg>
