<?xml version="1.0" encoding="utf-8"?>
<!-- Generator: Adobe Illustrator 21.0.0, SVG Export Plug-In . SVG Version: 6.00 Build 0)  -->
<svg version="1.1" id="Слой_1" xmlns="http://www.w3.org/2000/svg" xmlns:xlink="http://www.w3.org/1999/xlink" x="0px" y="0px"
	 viewBox="0 0 50 50" style="enable-background:new 0 0 50 50;" xml:space="preserve">
<style type="text/css">
	.st0{fill:#9FCF67;}
	.st1{fill:none;stroke:#000000;stroke-linecap:round;stroke-linejoin:round;stroke-miterlimit:10;}
</style>
<path class="st0" d="M31.4,50c-1.3,0-2.6-0.6-3.8-1.1c-1-0.4-1.9-0.9-2.7-0.9c-0.7,0-1.7,0.4-2.7,0.9c-1.2,0.5-2.5,1.1-3.8,1.1
	c-0.5,0-0.9-0.1-1.3-0.2c-1.8-0.6-2.8-2.4-3.7-3.9c-0.5-0.9-1-1.8-1.6-2.2c-0.6-0.4-1.6-0.7-2.6-0.9c-1.7-0.4-3.6-0.8-4.7-2.4
	C3.7,38.7,3.9,36.7,4,35c0.1-1.1,0.2-2.2,0-2.8c-0.2-0.6-0.9-1.4-1.5-2.2C1.3,28.6,0,27,0,25c0-2,1.3-3.6,2.5-4.9
	c0.7-0.8,1.3-1.6,1.5-2.2c0.2-0.7,0.1-1.8,0-2.8c-0.2-1.8-0.3-3.8,0.8-5.4c1.1-1.6,3-2,4.7-2.4c1-0.2,2-0.5,2.6-0.9
	C12.6,6,13.1,5,13.6,4.1c0.9-1.6,1.9-3.3,3.7-3.9C17.7,0.1,18.1,0,18.6,0c1.3,0,2.6,0.6,3.8,1.1C23.3,1.5,24.3,2,25,2
	s1.7-0.4,2.7-0.9C28.9,0.6,30.1,0,31.4,0c0.5,0,0.9,0.1,1.3,0.2c1.8,0.6,2.8,2.4,3.7,3.9C36.9,5,37.4,6,38,6.4
	c0.6,0.4,1.6,0.7,2.6,0.9c1.7,0.4,3.6,0.8,4.7,2.4c1.1,1.6,0.9,3.6,0.8,5.4c-0.1,1.1-0.2,2.2,0,2.8c0.2,0.6,0.9,1.4,1.5,2.2
	C48.7,21.4,50,23,50,25s-1.3,3.6-2.5,4.9c-0.7,0.8-1.3,1.6-1.5,2.2c-0.2,0.7-0.1,1.8,0,2.8c0.2,1.8,0.3,3.8-0.8,5.4
	c-1.1,1.6-3,2-4.7,2.4c-1,0.2-2,0.5-2.6,0.9c-0.5,0.4-1.1,1.3-1.6,2.2c-0.9,1.6-1.9,3.3-3.7,3.9C32.3,49.9,31.9,50,31.4,50z"/>
<g>
	<line class="st1" x1="16.5" y1="34" x2="33.2" y2="17.2"/>
	<ellipse class="st1" cx="30.5" cy="30.4" rx="3" ry="3.3"/>
	<ellipse class="st1" cx="19.6" cy="19.3" rx="3" ry="3.3"/>
</g>
</svg>
