<?xml version="1.0" encoding="utf-8"?>
<!-- Generator: Adobe Illustrator 21.0.0, SVG Export Plug-In . SVG Version: 6.00 Build 0)  -->
<svg version="1.1" id="Слой_1" xmlns="http://www.w3.org/2000/svg" xmlns:xlink="http://www.w3.org/1999/xlink" x="0px" y="0px"
	 viewBox="0 0 98.7 98.7" style="enable-background:new 0 0 98.7 98.7;" xml:space="preserve">
<path d="M96.9,88L70.8,61.9c4.8-6.6,7.4-14.7,7.4-22.8C78.2,17.5,60.6,0,39.1,0C17.5,0,0,17.5,0,39.1c0,21.5,17.5,39.1,39.1,39.1
	c8.3,0,16.2-2.6,22.8-7.4L88,96.9c1.2,1.2,2.7,1.8,4.4,1.8s3.2-0.6,4.4-1.8C99.3,94.4,99.3,90.4,96.9,88z M39.1,65.6
	c-14.6,0-26.5-11.9-26.5-26.5c0-14.6,11.9-26.5,26.5-26.5c14.6,0,26.5,11.9,26.5,26.5C65.6,53.7,53.7,65.6,39.1,65.6z"/>
</svg>
