<?xml version="1.0" encoding="utf-8"?>
<!-- Generator: Adobe Illustrator 21.0.0, SVG Export Plug-In . SVG Version: 6.00 Build 0)  -->
<svg version="1.1" id="Layer_1" xmlns="http://www.w3.org/2000/svg" xmlns:xlink="http://www.w3.org/1999/xlink" x="0px" y="0px"
	 viewBox="0 0 255.5 46.7" style="enable-background:new 0 0 255.5 46.7;" xml:space="preserve">
<style type="text/css">
	.st0{fill:#140B01;}
	.st1{fill:#A0CF67;}
	.st2{fill:#FFFFFF;}
</style>
<g>
	<g>
		<path class="st0" d="M73.2,40.8V36c0-0.1,0-0.1-0.1-0.1c0,0-0.1,0-0.2,0.1l-3.8,4.5c-0.2,0.3-0.4,0.4-0.8,0.4
			c-0.4,0-0.7-0.2-0.7-0.6v-5h0.7V40c0,0.1,0,0.1,0.1,0.1c0.1,0,0.1-0.1,0.2-0.1l3.8-4.5c0.2-0.2,0.4-0.3,0.8-0.3
			c0.6,0,0.6,0.5,0.6,0.6v5H73.2z"/>
		<path class="st0" d="M83.4,40.8v-2.6h-4.5v2.6h-0.7v-5.5h0.7v2.4h4.5v-2.4h0.7v5.5H83.4z"/>
		<path class="st0" d="M90.3,40.8v-5h-2.8v-0.5h6.3v0.5H91v5H90.3z"/>
		<path class="st0" d="M99.5,40.8c-0.6,0-1.4-0.1-2-0.7c-0.6-0.6-0.6-1.3-0.6-2.1c0-0.8,0.1-1.7,1-2.3c0.7-0.4,1.6-0.5,2.3-0.5
			c0.5,0,1.3,0.1,1.9,0.3c0.3,0.1,1.2,0.6,1.2,1.8c0,0.2,0,0.5-0.3,0.7c-0.2,0.1-0.6,0.2-0.8,0.2h-4.5c0,0.3,0,0.8,0.1,1.1
			c0.2,0.4,0.7,1,1.7,1h3.6v0.5H99.5z M102.2,37.7c0.3,0,0.3-0.3,0.3-0.4c0-0.5-0.3-0.9-0.5-1.1c-0.5-0.5-1.3-0.5-1.9-0.5
			c-0.7,0-1.5,0-2.1,0.7c-0.3,0.4-0.3,0.8-0.4,1.3H102.2z"/>
		<path class="st0" d="M108,42.5h-0.7v-6.6c0-0.3,0.2-0.5,0.4-0.5c0.3-0.2,0.6-0.2,0.8-0.2h1.9c0.5,0,1.5,0.1,2.2,0.6
			c0.8,0.6,0.8,1.4,0.8,2c0,0.7-0.1,1.4-0.6,2c-0.6,0.7-1.4,0.8-2.6,0.8H108V42.5z M110.4,40.3c0.7,0,1.3-0.2,1.7-0.6
			c0.3-0.4,0.4-0.9,0.4-1.7c0-0.8-0.1-1.2-0.3-1.5c-0.4-0.6-1.1-0.8-1.8-0.8h-2.1c-0.1,0-0.2,0-0.2,0.1c-0.1,0.1-0.1,0.1-0.1,0.2
			v4.3H110.4z"/>
		<path class="st0" d="M118,35.2v2.4h3.4c0.3,0,0.9,0,1.3,0.3c0.5,0.3,0.5,0.8,0.5,1.2c0,0.3,0,1-0.5,1.4c-0.4,0.3-0.9,0.3-1.4,0.3
			H118c-0.2,0-0.4,0-0.6-0.1c-0.2-0.1-0.2-0.3-0.2-0.5v-4.9H118z M118,39.9c0,0.1,0,0.2,0,0.3c0.1,0.1,0.2,0.1,0.3,0.1h3.1
			c0.2,0,0.5,0,0.8-0.3c0.1-0.1,0.2-0.4,0.2-0.9c0-0.2,0-0.6-0.3-0.8c-0.2-0.2-0.6-0.2-0.7-0.2H118V39.9z"/>
		<path class="st0" d="M129.4,40.8c-0.6,0-1.4-0.1-2-0.7c-0.6-0.6-0.6-1.3-0.6-2.1c0-0.8,0.1-1.7,1-2.3c0.7-0.4,1.6-0.5,2.3-0.5
			c0.5,0,1.3,0.1,1.9,0.3c0.3,0.1,1.2,0.6,1.2,1.8c0,0.2,0,0.5-0.3,0.7c-0.2,0.1-0.6,0.2-0.8,0.2h-4.5c0,0.3,0,0.8,0.1,1.1
			c0.2,0.4,0.7,1,1.7,1h3.6v0.5H129.4z M132.2,37.7c0.3,0,0.3-0.3,0.3-0.4c0-0.5-0.3-0.9-0.5-1.1c-0.5-0.5-1.3-0.5-1.9-0.5
			c-0.7,0-1.5,0-2.1,0.7c-0.3,0.4-0.3,0.8-0.4,1.3H132.2z"/>
		<path class="st0" d="M137.9,42.5h-0.7v-6.6c0-0.3,0.2-0.5,0.4-0.5c0.3-0.2,0.6-0.2,0.8-0.2h1.9c0.5,0,1.5,0.1,2.2,0.6
			c0.8,0.6,0.8,1.4,0.8,2c0,0.7-0.1,1.4-0.6,2c-0.6,0.7-1.4,0.8-2.6,0.8h-2.1V42.5z M140.3,40.3c0.7,0,1.3-0.2,1.7-0.6
			c0.3-0.4,0.4-0.9,0.4-1.7c0-0.8-0.1-1.2-0.3-1.5c-0.4-0.6-1.1-0.8-1.8-0.8h-2.1c-0.1,0-0.2,0-0.2,0.1c-0.1,0.1-0.1,0.1-0.1,0.2
			v4.3H140.3z"/>
		<path class="st0" d="M152.4,40.8v-2.6h-4.5v2.6h-0.7v-5.5h0.7v2.4h4.5v-2.4h0.7v5.5H152.4z"/>
		<path class="st0" d="M158,35.2v2.4h3.4c0.3,0,0.9,0,1.3,0.3c0.5,0.3,0.5,0.8,0.5,1.2c0,0.3,0,1-0.5,1.4c-0.4,0.3-0.9,0.3-1.4,0.3
			h-3.2c-0.2,0-0.4,0-0.6-0.1c-0.2-0.1-0.2-0.3-0.2-0.5v-4.9H158z M158,39.9c0,0.1,0,0.2,0,0.3c0.1,0.1,0.2,0.1,0.3,0.1h3.1
			c0.2,0,0.5,0,0.8-0.3c0.1-0.1,0.2-0.4,0.2-0.9c0-0.2,0-0.6-0.3-0.8c-0.2-0.2-0.6-0.2-0.7-0.2H158V39.9z M164.1,35.2h0.7v5.5h-0.7
			V35.2z"/>
		<path class="st0" d="M171.3,40.8c-0.6,0-1.4-0.1-2-0.7c-0.6-0.6-0.6-1.3-0.6-2.1c0-0.8,0.1-1.7,1-2.3c0.7-0.4,1.6-0.5,2.3-0.5
			c0.5,0,1.3,0.1,1.9,0.3c0.3,0.1,1.2,0.6,1.2,1.8c0,0.2,0,0.5-0.3,0.7c-0.2,0.1-0.6,0.2-0.8,0.2h-4.5c0,0.3,0,0.8,0.1,1.1
			c0.2,0.4,0.7,1,1.7,1h3.6v0.5H171.3z M174.1,37.7c0.3,0,0.3-0.3,0.3-0.4c0-0.5-0.3-0.9-0.5-1.1c-0.5-0.5-1.3-0.5-1.9-0.5
			c-0.7,0-1.5,0-2.1,0.7c-0.3,0.4-0.3,0.8-0.4,1.3H174.1z"/>
		<path class="st0" d="M185.9,42.5h-0.7v-6.6c0-0.3,0.2-0.5,0.4-0.5c0.3-0.2,0.6-0.2,0.8-0.2h1.9c0.5,0,1.5,0.1,2.2,0.6
			c0.8,0.6,0.8,1.4,0.8,2c0,0.7-0.1,1.4-0.6,2c-0.6,0.7-1.4,0.8-2.6,0.8h-2.1V42.5z M188.3,40.3c0.7,0,1.3-0.2,1.7-0.6
			c0.3-0.4,0.4-0.9,0.4-1.7c0-0.8-0.1-1.2-0.3-1.5c-0.4-0.6-1.1-0.8-1.8-0.8h-2.1c-0.1,0-0.2,0-0.2,0.1c-0.1,0.1-0.1,0.1-0.1,0.2
			v4.3H188.3z"/>
		<path class="st0" d="M197.5,40.8c-0.6,0-1.4-0.1-2-0.7c-0.6-0.6-0.6-1.3-0.6-2.1c0-0.8,0.1-1.7,1-2.3c0.7-0.4,1.6-0.5,2.3-0.5
			c0.5,0,1.3,0.1,1.9,0.3c0.3,0.1,1.2,0.6,1.2,1.8c0,0.2,0,0.5-0.3,0.7c-0.2,0.1-0.6,0.2-0.8,0.2h-4.5c0,0.3,0,0.8,0.1,1.1
			c0.2,0.4,0.7,1,1.7,1h3.6v0.5H197.5z M200.2,37.7c0.3,0,0.3-0.3,0.3-0.4c0-0.5-0.3-0.9-0.5-1.1c-0.5-0.5-1.3-0.5-1.9-0.5
			c-0.7,0-1.5,0-2.1,0.7c-0.3,0.4-0.3,0.8-0.4,1.3H200.2z"/>
		<path class="st0" d="M210.4,35.2v5h3.3c0.1,0,0.3,0,0.3-0.1c0.1-0.1,0.1-0.2,0.1-0.3v-4.7h0.7V40c0,0.2,0,0.4-0.2,0.6
			c-0.3,0.2-0.7,0.2-1,0.2h-7.2c-0.3,0-0.7,0-1-0.2c-0.2-0.1-0.2-0.4-0.2-0.6v-4.8h0.7v4.7c0,0.1,0,0.2,0.1,0.3
			c0.1,0.1,0.2,0.1,0.3,0.1h3.3v-5H210.4z"/>
		<path class="st0" d="M221.3,40.8c-0.6,0-1.4-0.1-2-0.7c-0.6-0.6-0.6-1.3-0.6-2.1c0-0.8,0.1-1.7,1-2.3c0.7-0.4,1.6-0.5,2.3-0.5
			c0.5,0,1.3,0.1,1.9,0.3c0.3,0.1,1.2,0.6,1.2,1.8c0,0.2,0,0.5-0.3,0.7c-0.2,0.1-0.6,0.2-0.8,0.2h-4.5c0,0.3,0,0.8,0.1,1.1
			c0.2,0.4,0.7,1,1.7,1h3.6v0.5H221.3z M224,37.7c0.3,0,0.3-0.3,0.3-0.4c0-0.5-0.3-0.9-0.5-1.1c-0.5-0.5-1.3-0.5-1.9-0.5
			c-0.7,0-1.5,0-2.1,0.7c-0.3,0.4-0.3,0.8-0.4,1.3H224z"/>
		<path class="st0" d="M234.2,40.8v-2.6h-4.5v2.6h-0.7v-5.5h0.7v2.4h4.5v-2.4h0.7v5.5H234.2z"/>
		<path class="st0" d="M244.7,40.8V36c0-0.1,0-0.1-0.1-0.1c0,0-0.1,0-0.2,0.1l-3.8,4.5c-0.2,0.3-0.4,0.4-0.8,0.4
			c-0.4,0-0.7-0.2-0.7-0.6v-5h0.7V40c0,0.1,0,0.1,0.1,0.1c0.1,0,0.1-0.1,0.2-0.1l3.8-4.5c0.2-0.2,0.4-0.3,0.8-0.3
			c0.6,0,0.6,0.5,0.6,0.6v5H244.7z"/>
		<path class="st0" d="M252.1,38.8c0.1-0.1,0.1-0.1,0.1-0.1c0-0.1-0.1-0.1-0.1-0.1h-0.8c-0.5,0-1-0.1-1.4-0.5
			c-0.4-0.4-0.4-0.9-0.4-1.2c0-0.4,0.1-0.9,0.5-1.3c0.3-0.2,0.7-0.4,1.2-0.4h3.1c0.3,0,0.6,0,0.9,0.2c0.3,0.2,0.3,0.5,0.3,0.7v4.7
			h-0.7v-4.6c0-0.1,0-0.2-0.1-0.3c-0.1-0.1-0.3-0.1-0.5-0.1h-3c-0.3,0-0.5,0.1-0.7,0.3c-0.2,0.2-0.2,0.6-0.2,0.8
			c0,0.5,0.1,0.7,0.2,0.9c0.2,0.3,0.5,0.3,0.9,0.3h1.4c0.2,0,0.6,0,0.6,0.3c0,0.1,0,0.2-0.2,0.4l-2.8,2h-1L252.1,38.8z"/>
	</g>
	<g>
		<path class="st0" d="M80.5,24.4c-0.3,0.7-0.8,1.4-2.2,1.4c-1.4,0-1.9-0.7-2.2-1.4l-4.4-11.1c0-0.1-0.1-0.4-0.3-0.4
			c-0.2,0-0.2,0.2-0.2,0.3l0.2,12.4h-3.8V10.7c0-1.7,1.4-2.5,3-2.5c1.4,0,2.4,0.5,2.9,1.8L77.8,21c0.1,0.2,0.3,0.7,0.5,0.7
			s0.4-0.5,0.5-0.7l4.3-10.9c0.6-1.4,1.5-1.8,2.9-1.8c1.6,0,2.9,0.8,2.9,2.5v14.9h-3.8l0.2-12.4c0-0.2-0.1-0.3-0.2-0.3
			c-0.1,0-0.2,0.3-0.3,0.4L80.5,24.4z"/>
		<path class="st0" d="M102.1,8.4c1.5,0,2.8,0.5,3.6,1.3c0.7,0.7,1.3,2.1,1.3,4.1v8.9c0,0.6-0.1,1.6-0.7,2.2
			c-0.6,0.6-1.6,0.7-2.4,0.7h-8.2c-0.9,0-2.1,0-3.1-0.8c-1.4-1.2-1.5-3.4-1.5-4.7c0-1.5,0.2-3,1.5-4.2c1.1-0.9,2.2-1,3.1-1h7.5v-1.2
			c0-0.5-0.1-1.1-0.5-1.6c-0.5-0.6-1.3-0.7-1.8-0.7h-8.5V8.4H102.1z M96.9,17.8c-0.3,0-1,0-1.4,0.6C95.3,18.6,95,19,95,20.3
			c0,0.5,0.1,1.4,0.5,1.9c0.3,0.3,0.7,0.5,1.2,0.5h5.3c0.2,0,0.6,0,0.8-0.2c0.3-0.2,0.3-0.5,0.3-0.7v-4H96.9z"/>
		<path class="st0" d="M115.8,25.6c-1.3,0-3.6-0.3-5.1-2.1c-1.4-1.7-1.6-3.8-1.6-6.3c0-2,0-5,1.9-7c0.7-0.7,2.2-1.8,5.3-1.8h7.4v2.9
			h-6.1c-2.6,0-3.8,1.3-4.2,2.7c-0.3,0.9-0.3,2.7-0.3,3.2c0,1,0.1,2.7,0.6,3.6c0.8,1.7,2.7,1.8,4.3,1.8h6.2v2.9H115.8z"/>
		<path class="st0" d="M131.3,25.6V11.3h-6.4V8.4h16.7v2.9h-6.5v14.3H131.3z"/>
		<path class="st0" d="M148.9,25.6c-1.8,0-3.8-0.2-5.3-2.2c-1.1-1.6-1.2-4-1.2-6.3c0-3.2,0.2-5.6,2-7.2c1.9-1.6,4.8-1.6,6.4-1.6
			c2,0,4.1,0.1,5.7,1.1c2,1.3,2.4,3.4,2.4,5.6c0,0.9-0.1,1.9-0.8,2.6c-0.5,0.5-1.2,0.6-1.8,0.6h-10c0,0.7,0.1,1.8,0.2,2.4
			c0.5,1.8,2.1,2,3.5,2h8.4v2.9H148.9z M154.2,15.4c0.7,0,0.8-0.6,0.8-1c0-1.1-0.6-1.9-1.1-2.3c-0.9-0.7-2.2-0.8-3.2-0.8
			c-1,0-2.6,0-3.6,1.1c-0.8,0.9-0.7,1.8-0.8,2.9H154.2z"/>
		<path class="st0" d="M164.9,31.1h-3.8v-20c0-1.1,0.6-1.8,1-2.1c0.6-0.5,1.5-0.6,2.1-0.6h6c1.1,0,3.4,0.2,5.1,1.9
			c1.8,1.8,1.8,4.5,1.8,6.4c0,2.3-0.1,4.7-1.4,6.5c-1.6,2.3-4.3,2.5-6,2.5h-4.8V31.1z M169.2,22.7c1.9,0,2.8-0.9,3.2-1.6
			c0.4-0.5,0.7-1.6,0.7-4.1c0-2.3-0.3-3.2-0.5-3.7c-0.5-1.1-1.6-1.9-3.3-1.9h-3.7c-0.2,0-0.4,0.1-0.5,0.2c-0.2,0.2-0.3,0.4-0.3,0.6
			v10.5H169.2z"/>
		<path class="st0" d="M185.6,23.6c0.1,0.2,0.2,0.5,0.4,0.5c0.2,0,0.3-0.4,0.3-0.5l3.7-14c0.3-1.2,1-1.4,1.6-1.4
			c0.5,0,1.2,0.2,1.6,1.4l3.7,14c0,0.1,0.1,0.5,0.3,0.5c0.2,0,0.3-0.3,0.4-0.5l3.9-15.2h1.7l-4.2,15.9c-0.2,0.7-0.6,1.4-1.7,1.4
			c-1.3,0-1.6-1-1.8-1.5l-3.6-13.4c0-0.2-0.1-0.6-0.3-0.6c-0.1,0-0.2,0.4-0.3,0.6l-3.6,13.4c-0.1,0.5-0.5,1.5-1.8,1.5
			c-1.1,0-1.5-0.7-1.7-1.4l-4.2-15.9h1.7L185.6,23.6z"/>
		<path class="st0" d="M205.7,10.1c1.7-1.7,4.2-1.9,6.4-1.9c2.2,0,4.7,0.2,6.4,1.9c1.9,1.8,2.1,4.9,2.1,6.8c0,3.7-1,5.8-2.1,6.9
			c-1.9,1.8-4.8,1.9-6.4,1.9c-1.5,0-4.5-0.1-6.4-1.9c-1.1-1.1-2.1-3.2-2.1-6.9C203.6,15,203.9,12,205.7,10.1z M206.8,22.6
			c1.4,1.5,3.5,1.7,5.3,1.7s3.9-0.2,5.3-1.7c1.4-1.6,1.4-4.1,1.4-5.5c0-1.5,0-4.2-1.4-5.7c-1.3-1.5-3.7-1.6-5.3-1.6
			c-1.6,0-4,0.1-5.3,1.6c-1.4,1.5-1.4,4.2-1.4,5.7C205.4,18.5,205.4,21.1,206.8,22.6z"/>
		<path class="st0" d="M224.7,10.1c1.7-1.7,4.2-1.9,6.4-1.9c2.2,0,4.7,0.2,6.4,1.9c1.9,1.8,2.1,4.9,2.1,6.8c0,3.7-1,5.8-2.1,6.9
			c-1.9,1.8-4.8,1.9-6.4,1.9c-1.5,0-4.5-0.1-6.4-1.9c-1.1-1.1-2.1-3.2-2.1-6.9C222.5,15,222.8,12,224.7,10.1z M225.7,22.6
			c1.4,1.5,3.5,1.7,5.3,1.7s3.9-0.2,5.3-1.7c1.4-1.6,1.4-4.1,1.4-5.5c0-1.5,0-4.2-1.4-5.7c-1.3-1.5-3.7-1.6-5.3-1.6
			c-1.6,0-4,0.1-5.3,1.6c-1.4,1.5-1.4,4.2-1.4,5.7C224.3,18.5,224.3,21.1,225.7,22.6z"/>
		<path class="st0" d="M255,25c-0.5,0.6-1.3,0.6-1.9,0.6h-5.3c-1.7,0-4.3-0.4-5.6-3.5c-0.7-1.7-0.8-3.7-0.8-5.6
			c0-1.9,0.1-3.8,1.3-5.6c1.6-2.3,3.9-2.6,5.8-2.6h5.2V2.9h1.7v20.2C255.5,23.8,255.4,24.6,255,25z M248.2,10
			c-1.3,0-3.1,0.3-4.1,1.9c-0.6,1-0.8,2.5-0.8,4.9c0,3.1,0.3,4.1,0.5,4.6c0.9,2.4,3.1,2.7,4.4,2.7h4.3c0.2,0,0.8,0,1-0.3
			c0.2-0.2,0.3-0.8,0.3-1.2V10H248.2z"/>
	</g>
	<g>
		<g>
			<g>
				<path class="st1" d="M60.7,26C50.3,46.1,19.7,51.6,0,42.5C17.2,25,41.6,22.2,60.7,26"/>
			</g>
			<g>
				<path class="st0" d="M36.3,0c3.5,19.5-6.8,35.3-25.5,37.3C10.4,13.9,20.9,5.7,36.3,0"/>
			</g>
		</g>
		<path class="st2" d="M11,30.8c0.1-1.3,0.2-2.3,0.2-2.3L28.8,15l2.6,1.7l-9.3,18.8l18.9-10.7c0,0,2.4-0.2,5.5-0.1
			c3.3,0,5.3,0.2,5.3,0.2L34.1,45.2c0,0-2.6,0.6-4.7,0.9c-2.6,0.4-4.6,0.5-4.6,0.5l12.7-14.6L9.8,45.7c-0.7-0.1-1-0.2-1.9-0.4
			C7,45,6.1,44.7,6.1,44.7l13.9-7.9l5.2-15L1.1,42.9L0,42.5c0,0,2.8-2.9,5.5-4.9c1-0.8,2.9-2.2,4.1-2.9c0.9-0.6,1.2-0.8,1.2-0.8
			S10.8,32.5,11,30.8z"/>
	</g>
</g>
</svg>
