<?xml version="1.0" encoding="utf-8"?>
<!-- Generator: Adobe Illustrator 21.0.0, SVG Export Plug-In . SVG Version: 6.00 Build 0)  -->
<svg version="1.1" id="Режим_изоляции"
	 xmlns="http://www.w3.org/2000/svg" xmlns:xlink="http://www.w3.org/1999/xlink" x="0px" y="0px" viewBox="0 0 40 40"
	 style="enable-background:new 0 0 40 40;" xml:space="preserve">
<style type="text/css">
	.st0{fill:#0B80E0;}
</style>
<path class="st0" d="M31.5,40c-1.3,0-2.5-0.3-3.6-0.8c-0.1-0.1-0.2-0.1-0.3-0.1C16.2,33.3,6.8,23.8,0.9,12.5c0-0.1-0.1-0.2-0.1-0.3
	C0.3,11,0,9.8,0,8.5C0,3.7,4.2,0,7,0c0.4,0,0.6,0.2,0.7,0.3c0,0,0.1,0.1,0.1,0.2L8,0.6l6.6,8.5l0.2,0.2C14.8,9.4,15,9.6,15,10
	c0,0.2,0,0.3-0.1,0.5l-2.2,2.2l0,0c-0.8,0.8-1.3,1.8-1.3,2.9c0,1,0.4,2,1.1,2.8l0.1,0.1c2.5,3.4,5.5,6.4,9,8.9l0.1,0.1
	c0.7,0.7,1.7,1.1,2.8,1.1c1,0,2.1-0.4,2.8-1.2l0.1-0.1l2.2-2.3C29.6,25,29.8,25,30,25c0.4,0,0.6,0.2,0.7,0.3l0.2,0.2l8.5,6.6
	l0.2,0.1c0.1,0.1,0.2,0.1,0.2,0.1c0.1,0.1,0.3,0.3,0.3,0.7l0,0.2C39.8,35.9,36.2,40,31.5,40z"/>
</svg>
