<?xml version="1.0" encoding="utf-8"?>
<!-- Generator: Adobe Illustrator 21.0.0, SVG Export Plug-In . SVG Version: 6.00 Build 0)  -->
<svg version="1.1" id="Capa_1" xmlns="http://www.w3.org/2000/svg" xmlns:xlink="http://www.w3.org/1999/xlink" x="0px" y="0px"
	 viewBox="0 0 17.4 17.5" style="enable-background:new 0 0 17.4 17.5;" xml:space="preserve">
<style type="text/css">
	.st0{fill:none;stroke:#FFFFFF;stroke-width:0.5;stroke-linecap:round;stroke-linejoin:round;stroke-miterlimit:10;}
</style>
<path class="st0" d="M17.1,7.3L17,7l-0.2-0.2c-0.3-0.2-1.9,0-2.3-0.4C14.1,6.2,14.1,5.7,14,5c-0.2-1.3-0.3-1.4-0.5-1.8
	c-0.7-1.6-2.8-2.8-4.1-2.9H5.6c-3,0-5.4,2.4-5.4,5.4v6.3c0,2.9,2.4,5.4,5.4,5.4h6.2c3,0,5.4-2.4,5.4-5.4l0-4.3L17.1,7.3z M5.7,4.6h3
	c0.6,0,1,0.5,1,1c0,0.6-0.5,1-1,1h-3c-0.6,0-1-0.5-1-1C4.7,5.1,5.1,4.6,5.7,4.6z M11.7,12.8H5.7c-0.6,0-1-0.5-1-1c0-0.6,0.5-1,1-1
	h6.1c0.6,0,1,0.5,1,1C12.8,12.4,12.3,12.8,11.7,12.8z"/>
</svg>
