<?xml version="1.0" encoding="utf-8"?>
<!-- Generator: Adobe Illustrator 21.0.0, SVG Export Plug-In . SVG Version: 6.00 Build 0)  -->
<svg version="1.1" id="Режим_изоляции"
	 xmlns="http://www.w3.org/2000/svg" xmlns:xlink="http://www.w3.org/1999/xlink" x="0px" y="0px" viewBox="0 0 14.5 23.6"
	 style="enable-background:new 0 0 14.5 23.6;" xml:space="preserve">
<style type="text/css">
	.st0{fill-rule:evenodd;clip-rule:evenodd;fill:none;stroke:#FA8E12;stroke-width:0.5;stroke-miterlimit:10;}
</style>
<path class="st0" d="M5.9,0.5c3.5-1,6.4,1.7,7,4.4c0.8,3.5-1.7,6.3-4.4,6.9C1.4,13.3-1.7,2.6,5.9,0.5L5.9,0.5z M5.8,16.6
	c-0.3-0.2-1.4-0.3-1.9-0.5c-5.6-1.8-3.6-4.5-2-4.4c0.6,0.1,1.1,0.5,1.5,0.8c2.3,1.4,5.4,1.3,7.7-0.1c0.5-0.3,0.9-0.8,1.6-0.7
	c1,0.1,3,1.8-0.5,3.6c-2,1-2,0.7-3.6,1.2c0.3,0.5,3.1,3.2,3.9,4c1.3,1.4,0.2,2.9-1.2,2.7c-0.9-0.1-3.6-3-4.1-3.6
	c-1.1,0.6-3.1,3.4-4.1,3.6c-1.4,0.2-2.6-1.4-1.2-2.8L5.8,16.6L5.8,16.6z M6.6,3.3C8.3,2.8,9.7,4,10,5.4c0.5,1.7-0.7,3.1-2,3.4
	C4.4,9.8,2.8,4.4,6.6,3.3z"/>
</svg>
