<?xml version="1.0" encoding="utf-8"?>
<!-- Generator: Adobe Illustrator 21.0.0, SVG Export Plug-In . SVG Version: 6.00 Build 0)  -->
<svg version="1.1" id="Capa_1" xmlns="http://www.w3.org/2000/svg" xmlns:xlink="http://www.w3.org/1999/xlink" x="0px" y="0px"
	 viewBox="0 0 17.5 15.2" style="enable-background:new 0 0 17.5 15.2;" xml:space="preserve">
<style type="text/css">
	.st0{fill:none;stroke:#FFFFFF;stroke-width:0.5;stroke-linecap:round;stroke-linejoin:round;stroke-miterlimit:10;}
</style>
<path class="st0" d="M17.2,3.6c-0.1,1.7-1.2,3.9-3.5,6.8c-2.3,3-4.3,4.5-5.9,4.5c-1,0-1.8-0.9-2.5-2.7c-0.5-1.7-0.9-3.4-1.4-5
	C3.5,5.3,3,4.4,2.4,4.4C2.3,4.4,1.8,4.7,1,5.2l-0.8-1C1.1,3.4,1.9,2.7,2.7,2c1.1-1,2-1.5,2.5-1.5c1.3-0.1,2.1,0.8,2.4,2.7
	C8,5.2,8.2,6.5,8.4,7c0.4,1.7,0.8,2.6,1.3,2.6c0.4,0,0.9-0.6,1.6-1.7c0.7-1.1,1.1-2,1.1-2.6c0.1-1-0.3-1.4-1.1-1.4
	C10.8,4,10.4,4,10,4.2c0.8-2.7,2.4-4,4.8-4C16.5,0.3,17.4,1.4,17.2,3.6z"/>
</svg>
