<?xml version="1.0" encoding="utf-8"?>
<!-- Generator: Adobe Illustrator 21.0.0, SVG Export Plug-In . SVG Version: 6.00 Build 0)  -->
<svg version="1.1" id="Слой_1" xmlns="http://www.w3.org/2000/svg" xmlns:xlink="http://www.w3.org/1999/xlink" x="0px" y="0px"
	 viewBox="0 0 409.6 409.6" style="enable-background:new 0 0 409.6 409.6;" xml:space="preserve">
<g>
	<path d="M178.3,310.4h41.2c3.5,0,6.4-2.9,6.4-6.4v-92.7h21.4c3.3,0,6-2.5,6.4-5.7l3.6-35c0.2-1.8-0.4-3.6-1.6-4.9
		c-1.2-1.3-2.9-2.1-4.8-2.1h-25v-14.2c0-2.9,0.9-3.1,2.3-3.1h22.1c3.5,0,6.4-2.9,6.4-6.4v-34c0-3.5-2.8-6.4-6.4-6.4l-30.5-0.1
		c-21.4,0-32.8,9.4-38.6,17.3c-8.1,11-9.3,24-9.3,30.7v16.3h-13.2c-3.5,0-6.4,2.9-6.4,6.4v35c0,3.5,2.9,6.4,6.4,6.4h13.2V304
		C171.9,307.5,174.8,310.4,178.3,310.4L178.3,310.4z M165.1,198.5v-22.2h13.2c3.5,0,6.4-2.9,6.4-6.4v-22.7c0-4.1,0.7-14.7,6.8-23.1
		c5.9-8,15.4-12.1,28.3-12.1l24.1,0.1v21.2h-15.7c-7.5,0-15.1,4.9-15.1,15.9v20.6c0,3.5,2.9,6.4,6.4,6.4h24.3l-2.3,22.2h-22
		c-3.5,0-6.4,2.9-6.4,6.4v92.7h-28.4v-92.7c0-3.5-2.9-6.4-6.4-6.4H165.1z M165.1,198.5"/>
	<path d="M349.6,60C310.9,21.3,259.5,0,204.8,0S98.7,21.3,60,60C21.3,98.7,0,150.1,0,204.8c0,54.7,21.3,106.1,60,144.8
		c38.7,38.7,90.1,60,144.8,60c54.7,0,106.1-21.3,144.8-60c38.7-38.7,60-90.1,60-144.8C409.6,150.1,388.3,98.7,349.6,60L349.6,60z
		 M340.6,340.6c-36.3,36.3-84.5,56.2-135.8,56.2c-51.3,0-99.5-20-135.8-56.2c-36.3-36.3-56.2-84.5-56.2-135.8
		c0-51.3,20-99.5,56.2-135.8s84.5-56.2,135.8-56.2c51.3,0,99.5,20,135.8,56.2c36.3,36.3,56.2,84.5,56.2,135.8
		C396.8,256.1,376.8,304.3,340.6,340.6L340.6,340.6z M340.6,340.6"/>
	<path d="M344,92c-2.2-2.7-6.3-3.2-9-0.9c-2.7,2.2-3.2,6.3-0.9,9c23.9,29.5,37.1,66.7,37.1,104.8c0,44.5-17.3,86.2-48.7,117.7
		s-73.2,48.7-117.7,48.7c-41,0-80.4-15-110.9-42.4c-2.6-2.4-6.7-2.1-9,0.5c-2.4,2.6-2.1,6.7,0.5,9c32.9,29.4,75.3,45.6,119.5,45.6
		c47.9,0,92.9-18.6,126.7-52.5c33.8-33.8,52.5-78.8,52.5-126.7C384,163.8,369.8,123.7,344,92L344,92z M344,92"/>
	<path d="M38.4,204.8C38.4,113,113,38.4,204.8,38.4c41,0,80.4,15,110.9,42.4c2.6,2.4,6.7,2.1,9-0.5c2.4-2.6,2.1-6.7-0.5-9
		C291.4,41.8,249,25.6,204.8,25.6c-47.9,0-92.9,18.6-126.7,52.5c-33.8,33.8-52.5,78.8-52.5,126.7c0,41,14.2,81.1,40,112.8
		c1.3,1.6,3.1,2.4,5,2.4c1.4,0,2.8-0.5,4-1.4c2.7-2.2,3.2-6.3,0.9-9C51.6,280.1,38.4,242.9,38.4,204.8L38.4,204.8z M38.4,204.8"/>
</g>
</svg>
