<?xml version="1.0" encoding="utf-8"?>
<!-- Generator: Adobe Illustrator 21.0.0, SVG Export Plug-In . SVG Version: 6.00 Build 0)  -->
<svg version="1.1" id="Слой_1" xmlns="http://www.w3.org/2000/svg" xmlns:xlink="http://www.w3.org/1999/xlink" x="0px" y="0px"
	 viewBox="0 0 409.6 409.6" style="enable-background:new 0 0 409.6 409.6;" xml:space="preserve">
<g>
	<path d="M349.6,60C310.9,21.3,259.5,0,204.8,0S98.7,21.3,60,60C21.3,98.7,0,150.1,0,204.8c0,54.7,21.3,106.1,60,144.8
		c38.7,38.7,90.1,60,144.8,60c54.7,0,106.1-21.3,144.8-60c38.7-38.7,60-90.1,60-144.8C409.6,150.1,388.3,98.7,349.6,60L349.6,60z
		 M340.6,340.6c-36.3,36.3-84.5,56.2-135.8,56.2c-51.3,0-99.5-20-135.8-56.2c-36.3-36.3-56.2-84.5-56.2-135.8
		c0-51.3,20-99.5,56.2-135.8s84.5-56.2,135.8-56.2c51.3,0,99.5,20,135.8,56.2c36.3,36.3,56.2,84.5,56.2,135.8
		C396.8,256.1,376.8,304.3,340.6,340.6L340.6,340.6z M340.6,340.6"/>
	<path d="M344,92c-2.2-2.7-6.3-3.2-9-0.9c-2.7,2.2-3.2,6.3-0.9,9c23.9,29.5,37.1,66.7,37.1,104.8c0,44.5-17.3,86.2-48.7,117.7
		s-73.2,48.7-117.7,48.7c-41,0-80.4-15-110.9-42.4c-2.6-2.4-6.7-2.1-9,0.5c-2.4,2.6-2.1,6.7,0.5,9c32.9,29.4,75.3,45.6,119.5,45.6
		c47.9,0,92.9-18.6,126.7-52.5c33.8-33.8,52.5-78.8,52.5-126.7C384,163.8,369.8,123.7,344,92L344,92z M344,92"/>
	<path d="M38.4,204.8C38.4,113,113,38.4,204.8,38.4c41,0,80.4,15,110.9,42.4c2.6,2.4,6.7,2.1,9-0.5c2.4-2.6,2.1-6.7-0.5-9
		C291.4,41.8,249,25.6,204.8,25.6c-47.9,0-92.9,18.6-126.7,52.5c-33.8,33.8-52.5,78.8-52.5,126.7c0,41,14.2,81.1,40,112.8
		c1.3,1.6,3.1,2.4,5,2.4c1.4,0,2.8-0.5,4-1.4c2.7-2.2,3.2-6.3,0.9-9C51.6,280.1,38.4,242.9,38.4,204.8L38.4,204.8z M38.4,204.8"/>
	<path d="M152.1,241.3c-8,5.8-12.4,13.6-12.4,22.1c0,8.5,4.4,16.4,12.4,22.1c7.3,5.3,17,8.2,27.2,8.2c10.2,0,19.9-2.9,27.2-8.2
		c8-5.8,12.4-13.6,12.4-22.1c0-8.5-4.4-16.4-12.4-22.1c-7.3-5.3-17-8.2-27.2-8.2C169.1,233.1,159.5,236,152.1,241.3L152.1,241.3z
		 M206.1,263.5c0,9.5-12.3,17.6-26.8,17.6c-14.5,0-26.8-8.1-26.8-17.6c0-9.5,12.3-17.6,26.8-17.6C193.8,245.9,206.1,254,206.1,263.5
		L206.1,263.5z M206.1,263.5"/>
	<path d="M255.5,111.8c-1-2.4-3.3-4-5.9-4h-67.4c-15.7,0-31.5,5.8-43.3,16c-12.1,10.4-19,24.4-19,38.5c0,27.3,17.4,47.9,43,52.1
		c0,0.4,0,0.8,0.1,1.2c-14.3,1.9-27.4,7.7-37.5,16.9c-11.3,10.2-17.7,23.7-17.7,36.9c0,26.2,29.4,45.3,69.8,45.3
		c34.3,0,69.7-19.7,69.7-52.8c0-21.1-6.3-32.6-25.8-47.3l-1.2-0.9c-5.2-3.9-7.8-6.2-9.1-7.5c0.7-0.8,2.3-2.2,5.5-4.8
		c13.5-10.5,20.6-23.8,20.6-38.4c0-8.5-1.8-16.4-5.1-23.3l21.9-21C255.9,117,256.5,114.2,255.5,111.8L255.5,111.8z M219.7,133.9
		c-2.2,2.1-2.6,5.5-0.9,8.1c3.7,5.8,5.7,13,5.7,21c0,10.5-5.4,20.3-15.7,28.3c-8.8,6.9-11,10.1-11,16.2c0,0.8,0.1,1.5,0.4,2.2
		c1,2.8,3.9,6.3,14.5,14.1l1.1,0.9c16.4,12.3,20.7,19.9,20.7,37.1c0,14.3-9.3,23.5-17.1,28.8c-10.7,7.1-25.2,11.2-39.8,11.2
		c-16.6,0-31.6-3.6-42.2-10c-6.8-4.2-14.9-11.4-14.9-22.4c0-24,26.2-40.9,50.6-41.6c2.1-0.1,4.1-1.2,5.2-3c1.1-1.8,1.3-4.1,0.4-6
		c-0.8-1.7-1.2-3.6-1.2-5.6c0-1.1,0.1-2.2,0.3-3.3c0.3-1.8-0.1-3.7-1.3-5.1c-1.1-1.4-2.8-2.3-4.7-2.4c-22.3-1.2-37.3-17.3-37.3-40
		c0-10.4,5.3-20.9,14.6-28.8c9.5-8.2,22.2-12.9,34.9-12.9h51.5L219.7,133.9z M219.7,133.9"/>
	<path d="M162.7,131.1c-6.5,3.3-10.9,10-12.1,18.4c-1.1,7.7,0.5,16.2,4.5,24.1c6.7,13.3,18.3,21.3,29.2,21.3c3.3,0,6.5-0.7,9.5-2.2
		c13-6.6,16.3-25.2,7.6-42.5c-4-7.8-9.9-14.2-16.7-17.9C177.2,128.3,169.2,127.8,162.7,131.1L162.7,131.1z M178.6,143.6
		c4.5,2.4,8.6,6.9,11.4,12.4c5.2,10.3,4.3,22.1-2,25.3c-6.3,3.2-16.3-3.1-21.5-13.4c-2.8-5.5-3.9-11.5-3.2-16.5
		c0.3-2.5,1.5-6.9,5.2-8.8c1.2-0.6,2.4-0.8,3.6-0.8C174.7,141.7,177.2,142.8,178.6,143.6L178.6,143.6z M178.6,143.6"/>
	<path d="M288,197.4c3.5,0,6.4-2.9,6.4-6.4v-25.6H320c3.5,0,6.4-2.9,6.4-6.4c0-3.5-2.9-6.4-6.4-6.4h-25.6V127c0-3.5-2.9-6.4-6.4-6.4
		c-3.5,0-6.4,2.9-6.4,6.4v25.6H256c-3.5,0-6.4,2.9-6.4,6.4c0,3.5,2.9,6.4,6.4,6.4h25.6V191C281.6,194.5,284.5,197.4,288,197.4
		L288,197.4z M288,197.4"/>
</g>
</svg>
