<?xml version="1.0" encoding="utf-8"?>
<!-- Generator: Adobe Illustrator 21.0.0, SVG Export Plug-In . SVG Version: 6.00 Build 0)  -->
<svg version="1.1" id="Social_Media__x2F__Brands" xmlns="http://www.w3.org/2000/svg" xmlns:xlink="http://www.w3.org/1999/xlink"
	 x="0px" y="0px" viewBox="0 0 60 37" style="enable-background:new 0 0 60 37;" xml:space="preserve">
<style type="text/css">
	.st0{fill:none;stroke:#000000;stroke-width:2;stroke-linecap:round;stroke-linejoin:round;stroke-miterlimit:10;}
</style>
<g>
	<path class="st0" d="M57.2,36h-7.7c0,0-2.7,0.3-4.9-1.3c-2.9-2.1-5.8-6.2-9.6-6.2V34c0,0-0.1,2-2.1,2c-1.3,0,2.1,0-1.7,0
		c-2.7,0-9.2-0.4-16.3-7.4C6.8,20.5,1.2,5.2,1.2,5.2s-0.4-0.9,0-1.5C1.9,2.9,4.5,3,3.7,3C2.9,3,8.1,3,10,3c2.5,0,3.2,1.8,3.2,1.8
		s1.4,3.1,3.1,6.3C20.4,18.5,24,20,24,20V8c0,0,0.1-1.6-1.1-2.9c-0.8-0.9-2.3-1-2.8-1.1c-0.5,0,0.6-1.4,1.5-2C23.4,0.8,26,1,26,1
		h6.3c1.9,0,2.8,1.3,2.8,2.6C35.1,5.8,35,19,35,19s3.1-0.9,7-7.8c1.8-3.3,3.2-6.8,3.2-6.8s0.2-0.6,0.6-0.9C46.5,2.9,47.9,3,47.9,3
		s8.2,0,9.1,0c1.6,0,2,0.4,2,1.5c0,1.4-1.2,3.6-4.7,8.5c-5.9,8.2-6.5,7.4-1.7,12.2c4.6,4.5,5.6,6.7,5.7,7C60.3,35.5,57.2,36,57.2,36
		z"/>
</g>
</svg>
