<?xml version="1.0" encoding="utf-8"?>
<!-- Generator: Adobe Illustrator 21.0.0, SVG Export Plug-In . SVG Version: 6.00 Build 0)  -->
<svg version="1.1" id="Social_Media__x2F__Brands" xmlns="http://www.w3.org/2000/svg" xmlns:xlink="http://www.w3.org/1999/xlink"
	 x="0px" y="0px" viewBox="0 0 60 60" style="enable-background:new 0 0 60 60;" xml:space="preserve">
<style type="text/css">
	.st0{fill:none;stroke:#000000;stroke-width:2;stroke-linecap:round;stroke-linejoin:round;stroke-miterlimit:10;}
	.st1{fill:none;stroke:#000000;stroke-width:2;stroke-miterlimit:10;}
</style>
<g>
	<line class="st0" x1="17" y1="19.9" x2="17" y2="1"/>
	<g>
		<path class="st0" d="M59,55c0,2.2-1.8,4-4,4H5c-2.2,0-4-1.8-4-4V5c0-2.2,1.8-4,4-4h50c2.2,0,4,1.8,4,4V55z"/>
	</g>
	<ellipse class="st0" cx="30" cy="29.9" rx="14" ry="13.9"/>
	<line class="st0" x1="20" y1="20" x2="1" y2="20"/>
	<line class="st0" x1="59" y1="20" x2="40" y2="20"/>
	<path class="st1" d="M51.7,15h-4.4C46,15,45,14,45,12.7V8.3C45,7,46,6,47.3,6h4.4C53,6,54,7,54,8.3v4.4C54,14,53,15,51.7,15z"/>
</g>
</svg>
