<?xml version="1.0" encoding="utf-8"?>
<!-- Generator: Adobe Illustrator 21.0.0, SVG Export Plug-In . SVG Version: 6.00 Build 0)  -->
<svg version="1.1" id="Social_Media__x2F__Brands" xmlns="http://www.w3.org/2000/svg" xmlns:xlink="http://www.w3.org/1999/xlink"
	 x="0px" y="0px" viewBox="0 0 26.8 60" style="enable-background:new 0 0 26.8 60;" xml:space="preserve">
<style type="text/css">
	.st0{fill:none;stroke:#000000;stroke-width:2;stroke-linecap:round;stroke-linejoin:round;stroke-miterlimit:10;}
</style>
<g>
	<g>
		<path class="st0" d="M6,29v29c0,0.5,0.5,1,1,1h8c0.5,0,1-0.5,1-1V29"/>
	</g>
	<g>
		<path class="st0" d="M6,18.7"/>
	</g>
	<g>
		<path class="st0" d="M6,19H2c-0.5,0-1,0.5-1,1v8c0,0.5,0.5,1,1,1h4"/>
	</g>
	<g>
		<path class="st0" d="M16.4,28.2"/>
	</g>
	<g>
		<path class="st0" d="M16,29h7c0.5,0,1.1-0.4,1.2-1l1.6-8c0.1-0.5-0.3-1-0.8-1h-9"/>
	</g>
	<polyline class="st0" points="16.1,1 24,1 24,11 17,11 16,12 16,19 	"/>
	<path class="st0" d="M6,18.7"/>
	<line class="st0" x1="6" y1="19" x2="6" y2="11.1"/>
	<path class="st0" d="M16.1,1C9,1,6,5.8,6,11.1"/>
</g>
</svg>
