<?xml version="1.0" encoding="utf-8"?>
<!-- Generator: Adobe Illustrator 21.0.0, SVG Export Plug-In . SVG Version: 6.00 Build 0)  -->
<svg version="1.1" id="Режим_изоляции"
	 xmlns="http://www.w3.org/2000/svg" xmlns:xlink="http://www.w3.org/1999/xlink" x="0px" y="0px" viewBox="0 0 409.6 409.6"
	 style="enable-background:new 0 0 409.6 409.6;" xml:space="preserve">
<g>
	<g>
		<g>
			<path d="M349.6,60C310.9,21.3,259.5,0,204.8,0S98.7,21.3,60,60S0,150.1,0,204.8s21.3,106.1,60,144.8s90.1,60,144.8,60
				s106.1-21.3,144.8-60s60-90.1,60-144.8S388.3,98.7,349.6,60L349.6,60z M340.6,340.6c-36.3,36.3-84.5,56.2-135.8,56.2
				s-99.5-20-135.8-56.2c-36.3-36.3-56.2-84.5-56.2-135.8S32.8,105.3,69,69s84.5-56.2,135.8-56.2s99.5,20,135.8,56.2
				c36.3,36.3,56.2,84.5,56.2,135.8C396.8,256.1,376.8,304.3,340.6,340.6L340.6,340.6z"/>
		</g>
		<g>
			<path d="M344,92c-2.2-2.7-6.3-3.2-9-0.9c-2.7,2.2-3.2,6.3-0.9,9c23.9,29.5,37.1,66.7,37.1,104.8c0,44.5-17.3,86.2-48.7,117.7
				s-73.2,48.7-117.7,48.7c-41,0-80.4-15-110.9-42.4c-2.6-2.4-6.7-2.1-9,0.5c-2.4,2.6-2.1,6.7,0.5,9c32.9,29.4,75.3,45.6,119.5,45.6
				c47.9,0,92.9-18.6,126.7-52.5c33.8-33.8,52.5-78.8,52.5-126.7C384,163.8,369.8,123.7,344,92L344,92z"/>
		</g>
		<g>
			<path d="M38.4,204.8C38.4,113,113,38.4,204.8,38.4c41,0,80.4,15,110.9,42.4c2.6,2.4,6.7,2.1,9-0.5c2.4-2.6,2.1-6.7-0.5-9
				C291.4,41.8,249,25.6,204.8,25.6c-47.9,0-92.9,18.6-126.7,52.5c-33.8,33.8-52.5,78.8-52.5,126.7c0,41,14.2,81.1,40,112.8
				c1.3,1.6,3.1,2.4,5,2.4c1.4,0,2.8-0.5,4-1.4c2.7-2.2,3.2-6.3,0.9-9C51.6,280.1,38.4,242.9,38.4,204.8L38.4,204.8z"/>
		</g>
	</g>
	<g>
		<g>
			<path d="M164.3,289.5h-33.9c-2.3,0-4.4-1.4-5.2-3.6L85.4,176.8c-0.6-1.7-0.4-3.6,0.7-5c1-1.5,2.7-2.3,4.5-2.3h36.9
				c2.4,0,4.6,1.6,5.3,4l14.7,50.7c0.4,1.5,0.8,2.9,1.2,4.4c0.3-1.4,0.7-2.8,1.1-4.2c0,0,0-0.1,0-0.1l14.1-50.7c0.7-2.4,2.8-4,5.3-4
				h35.7c1.8,0,3.5,0.9,4.5,2.4c1,1.5,1.3,3.4,0.6,5.1l-40.6,109.1C168.7,288.1,166.6,289.5,164.3,289.5z M134.2,278.5h26.2
				l36.5-98.1h-23.6l-13,46.6c-2.6,10.2-4.4,19-5.9,26.3c-0.5,2.6-2.8,4.4-5.4,4.4h-0.7c-2.7,0-5-1.9-5.4-4.6
				c-1.5-8.7-3.5-17.2-6.1-26l-13.6-46.8H98.5L134.2,278.5z"/>
		</g>
		<g>
			<path d="M319,289.5h-41.7c-2,0-3.8-1-4.7-2.7l-22.3-38.1l-2.5,3V284c0,3-2.5,5.5-5.5,5.5h-33.9c-3,0-5.5-2.5-5.5-5.5V125.6
				c0-3,2.5-5.5,5.5-5.5h33.9c3,0,5.5,2.5,5.5,5.5v76.1l20.1-29.9c1-1.5,2.7-2.4,4.6-2.4h40.8c2.2,0,4.1,1.3,5,3.2s0.5,4.3-0.9,5.9
				l-36.2,41l42.4,61.4c1.2,1.7,1.3,3.9,0.3,5.7C322.9,288.4,321,289.5,319,289.5z M280.5,278.5h28.1l-38.8-56.3
				c-1.4-2.1-1.3-4.9,0.4-6.8l31-35.1h-25.7L255,210.7c-2.6,4.2-5.2,8.5-7.6,12.9c-1,1.7-2.8,2.8-4.8,2.8h-0.4c-3,0-5.5-2.5-5.5-5.5
				c0-0.4,0-0.7,0.1-1v-88.8h-22.9v147.4h22.9v-28.7c0-1.3,0.4-2.5,1.2-3.5l8.7-10.7c1.1-1.4,2.9-2.2,4.7-2c1.8,0.1,3.4,1.1,4.3,2.7
				L280.5,278.5z"/>
		</g>
	</g>
</g>
</svg>
